<?xml version="1.0" encoding="UTF-8" standalone="no"?>
<!-- Created with Inkscape (http://www.inkscape.org/) -->

<svg
   version="1.1"
   id="svg2"
   xml:space="preserve"
   width="773.07739"
   height="774.49304"
   viewBox="0 0 773.07739 774.49304"
   sodipodi:docname="93c890e7c86a17fbd46da6fa08c6688b.eps"
   xmlns:inkscape="http://www.inkscape.org/namespaces/inkscape"
   xmlns:sodipodi="http://sodipodi.sourceforge.net/DTD/sodipodi-0.dtd"
   xmlns="http://www.w3.org/2000/svg"
   xmlns:svg="http://www.w3.org/2000/svg"><defs
     id="defs6" /><sodipodi:namedview
     id="namedview4"
     pagecolor="#ffffff"
     bordercolor="#666666"
     borderopacity="1.0"
     inkscape:pageshadow="2"
     inkscape:pageopacity="0.0"
     inkscape:pagecheckerboard="0" /><g
     id="g8"
     inkscape:groupmode="layer"
     inkscape:label="ink_ext_XXXXXX"
     transform="matrix(1.3333333,0,0,-1.3333333,-22.161232,797.18768)"><g
       id="g10"
       transform="scale(0.1)"><path
         d="m 828.25,5961.25 c -413.102,-0.03 -645.461,-213.74 -645,-650 v -4502 c -0.461,-408.039 208.449,-621.891 621,-622 h 4521 c 412.73,0.109 621.96,203.313 622,622 v 4502 c -0.04,425.61 -209.27,649.97 -635,650 0,0 -4485.18,1.39 -4484,0"
         style="fill:#000000;fill-opacity:1;fill-rule:nonzero;stroke:none"
         id="path12" /><path
         d="m 828.25,5961.25 c -413.102,-0.03 -645.461,-213.74 -645,-650 v -4502 c -0.461,-408.039 208.449,-621.891 621,-622 h 4521 c 412.73,0.109 621.96,203.313 622,622 v 4502 c -0.04,425.61 -209.27,649.97 -635,650 0,0 -4485.18,1.39 -4484,0 z"
         style="fill:none;stroke:#ffffff;stroke-width:34.08;stroke-linecap:butt;stroke-linejoin:miter;stroke-miterlimit:10;stroke-dasharray:none;stroke-opacity:1"
         id="path14" /><path
         d="m 3363.25,4919.25 1802,-1802 -1802,-1802 h -1188 l 1370,1371 h -2693 v 872 h 2684 l -1363,1363 1190,-2"
         style="fill:#ffffff;fill-opacity:1;fill-rule:nonzero;stroke:none"
         id="path16" /></g></g></svg>
